<svg width="54" height="50" viewBox="0 0 54 50" fill="none" xmlns="http://www.w3.org/2000/svg">
<path d="M25.1514 1.81836C25.0967 1.88672 25.0488 2.14648 25.0352 2.43359L25.0078 2.93945H23.4219C21.5557 2.93945 21.3506 2.98047 20.8516 3.48633C20.3457 3.98535 20.3047 4.19043 20.3047 6.06348V7.65625L19.915 7.40332C18.3633 6.41211 16.3945 6.15918 14.7129 6.72656C13.6875 7.0752 12.9629 7.54688 12.2041 8.35352C10.9668 9.65918 10.5361 10.917 10.5225 13.1865V14.3213L10.2012 14.5264C9.36035 15.0732 9.33984 16.4268 10.167 17.165C10.3242 17.3086 10.5088 17.4385 10.5908 17.4658C10.7207 17.5068 10.7344 17.5615 10.7344 18.0127C10.7344 19.3047 11.2129 20.6172 12.0742 21.6836C12.4365 22.1348 13.1475 22.75 13.585 23.0098L13.8105 23.1328V24.0352V24.9375L12.0947 25.6758C9.95508 26.5918 9.53809 26.8926 9.05273 27.8359C8.71777 28.4922 8.68359 28.793 8.68359 31.0078C8.68359 32.915 8.69043 33.0723 8.80664 33.1748C8.92285 33.2842 9.5791 33.291 16.873 33.291H24.8096L24.9121 33.1406C25.0078 33.0107 25.0215 32.6963 25.0215 31.0898V29.1895H32.8691C41.7695 29.1895 41.1953 29.2236 41.7695 28.6494C42.3643 28.0479 42.3232 29.1758 42.3027 15.9277C42.2822 4.64844 42.2754 4.19727 42.1523 3.96484C41.9473 3.56836 41.5576 3.21973 41.1748 3.07617C40.8535 2.95996 40.6416 2.93945 39.5547 2.93945H38.2969L38.2695 2.43359C38.2559 2.14648 38.208 1.88672 38.1533 1.81836C38.0713 1.71582 37.5039 1.70898 31.6523 1.70898C25.8008 1.70898 25.2334 1.71582 25.1514 1.81836ZM37.4629 3.28125V4.0332H31.6523H25.8418V3.28125V2.5293H31.6523H37.4629V3.28125ZM25.0352 4.16992C25.0557 4.43652 25.1104 4.62109 25.1924 4.7168C25.3154 4.85352 25.3633 4.85352 31.6455 4.85352C35.125 4.85352 38.0098 4.82617 38.0508 4.79883C38.2012 4.70312 38.2832 4.4502 38.2832 4.10156V3.75293L39.5752 3.77344C41.0244 3.79395 41.127 3.82812 41.373 4.31348C41.4893 4.53223 41.4961 5.23633 41.4961 16.0645C41.4961 26.8926 41.4893 27.5967 41.373 27.8154C41.3115 27.9453 41.168 28.1162 41.0654 28.1914C40.874 28.335 40.8398 28.335 32.8828 28.3555L24.8916 28.3691L24.6797 27.9248C24.5566 27.665 24.29 27.2822 24.0508 27.0293C23.6064 26.5576 23.1895 26.3252 21.7607 25.7373L21.125 25.4775V23.6934V21.9092L21.4326 21.499C22.1299 20.583 22.5469 19.4277 22.6084 18.2383C22.6426 17.5889 22.6631 17.5 22.7861 17.459C22.8545 17.4385 23.0391 17.3086 23.1963 17.165C24.0713 16.3789 23.9688 14.8887 23.0049 14.4238L22.7178 14.2803L22.6768 12.9336C22.6221 10.9307 22.3418 10.001 21.4189 8.80469L21.1182 8.4082L21.1387 6.39844C21.1592 4.48438 21.166 4.375 21.3027 4.19043C21.5967 3.79395 21.7539 3.75977 23.4561 3.75977H25.0078L25.0352 4.16992ZM18.083 7.45117C19.6279 7.93652 20.9131 9.10547 21.4941 10.5547C21.7607 11.2314 21.877 12.0381 21.877 13.2617V14.335L21.5625 14.3828C20.7422 14.4922 19.1973 14.3896 18.1172 14.1504C17.2969 13.9658 16.6543 13.7334 15.9229 13.3574C15.1982 12.9814 15.1777 13.002 16.3262 12.79C17.7686 12.5234 19.4775 11.8604 20.3252 11.2383C20.7422 10.9307 20.8447 10.7324 20.6875 10.4932C20.5234 10.2471 20.2773 10.2744 19.792 10.6025C18.2402 11.6416 15.6084 12.2979 12.9561 12.3047C11.8213 12.3115 11.8145 12.3184 11.7461 13.0771C11.7256 13.3848 11.6982 13.8564 11.6982 14.123C11.6914 14.3896 11.6709 14.6289 11.6504 14.6494C11.623 14.6699 11.541 14.6631 11.4727 14.6221C11.3428 14.5537 11.3359 14.4922 11.3701 13.0703C11.3975 11.8193 11.4248 11.5117 11.5479 11.0879C12.1084 9.18066 13.585 7.7998 15.5537 7.3418C16.1621 7.20508 17.4678 7.25977 18.083 7.45117ZM14.5078 13.4531C15.4717 14.1777 16.9277 14.7861 18.377 15.0527C19.2451 15.21 21.1592 15.2646 22.1299 15.1553C22.6084 15.1006 22.6357 15.1074 22.7998 15.2715C23.0186 15.4902 23.0391 15.9893 22.834 16.3242C22.6904 16.5566 22.3281 16.8164 22.1367 16.8164C21.8975 16.8164 21.8086 17.083 21.8086 17.8076C21.8086 18.6074 21.6924 19.2227 21.4121 19.8789C20.2773 22.5859 17.126 23.7891 14.46 22.5244C13.1748 21.916 12.1973 20.7744 11.7598 19.3799C11.6504 19.0312 11.5957 18.6689 11.5752 18.0127C11.5342 17.0283 11.4795 16.8574 11.1514 16.7959C11.0352 16.7686 10.8301 16.6455 10.6934 16.5225C10.4678 16.3174 10.4336 16.2422 10.4062 15.9072C10.3721 15.5039 10.502 15.1758 10.6865 15.1758C10.7344 15.1758 11.001 15.2988 11.2812 15.4492C11.876 15.7637 12.0469 15.7842 12.2656 15.5654C12.4092 15.4219 12.4297 15.3125 12.4707 14.6562C12.498 14.2461 12.5322 13.7334 12.5527 13.5146L12.5938 13.125H13.332H14.0771L14.5078 13.4531ZM20.3047 23.8916C20.3047 24.5479 20.291 25.0879 20.2773 25.0879C20.2568 25.0879 20.168 25.0605 20.0723 25.0195L19.8945 24.9512V23.9326C19.8945 22.9551 19.9014 22.9141 20.0518 22.8115C20.1338 22.75 20.2227 22.7021 20.2568 22.7021C20.2842 22.6953 20.3047 23.2354 20.3047 23.8916ZM19.0742 24.1172V24.8555L18.6162 25.0059C17.4404 25.375 16.3262 25.3818 15.0957 25.0127L14.6309 24.876V24.1924C14.6309 23.5635 14.6445 23.502 14.7539 23.5498C15.4375 23.8164 16.7637 23.9258 17.6045 23.7959C17.8916 23.748 18.3291 23.6387 18.582 23.5498C18.835 23.4609 19.0469 23.3857 19.0605 23.3857C19.0674 23.3789 19.0742 23.7139 19.0742 24.1172ZM15.1777 25.874C16.3809 26.2021 17.5498 26.1748 18.8076 25.7988L19.3955 25.6211L21.1865 26.3867C23.251 27.2754 23.5449 27.4736 23.9414 28.2871L24.167 28.7383L24.1875 30.6045L24.208 32.4707H16.8594H9.50391V30.748C9.50391 28.793 9.55176 28.5059 9.96875 27.8975C10.1055 27.6992 10.3516 27.4395 10.5088 27.3301C10.8984 27.043 14.2207 25.6211 14.3916 25.6689C14.4668 25.6826 14.8223 25.7783 15.1777 25.874Z" fill="#C8C8C8"/>
<path d="M26.6279 7.36915C25.083 7.77247 23.9346 8.8252 23.4014 10.3359C23.2441 10.7666 23.2236 10.9512 23.2168 11.6895C23.2099 12.4004 23.2373 12.626 23.3672 13.0566C23.8183 14.499 25.001 15.668 26.457 16.0918C28.0908 16.5703 30.0117 15.9756 31.126 14.6426C31.748 13.9043 32.1992 12.6943 32.1992 11.7647C32.1992 10.6641 31.6865 9.40626 30.9141 8.62696C30.0391 7.74512 29.0547 7.30762 27.8242 7.27345C27.291 7.25294 26.9834 7.28028 26.6279 7.36915ZM28.542 8.16895C30.3877 8.64063 31.6045 10.4385 31.3242 12.2842C31.0029 14.3897 28.918 15.8252 26.874 15.3467C25.1992 14.9502 23.9961 13.46 23.9961 11.7783C23.9961 9.39259 26.2656 7.5879 28.542 8.16895Z" fill="#C8C8C8"/>
<path d="M28.1728 11.2451L26.7646 12.6396L26.2793 12.168C25.8896 11.7852 25.7461 11.6895 25.5752 11.6895C25.3359 11.6895 25.124 11.9424 25.1855 12.1543C25.2471 12.3525 26.6279 13.6719 26.7715 13.6719C26.8398 13.6719 27.5713 12.9951 28.5215 12.0518C30.2373 10.3428 30.3193 10.2266 30.0254 9.95996C29.7451 9.70703 29.6289 9.78906 28.1728 11.2451Z" fill="#C8C8C8"/>
<path d="M33.2656 8.42188C33.1152 8.63379 33.1289 8.7295 33.3271 8.9209C33.5322 9.13282 33.8262 9.13965 34.0723 8.94825C34.2773 8.79102 34.2978 8.64063 34.1406 8.42188C34.0586 8.29883 33.9697 8.27149 33.7031 8.27149C33.4365 8.27149 33.3477 8.29883 33.2656 8.42188Z" fill="#C8C8C8"/>
<path d="M35.3096 8.38086C35.2412 8.44922 35.207 8.5791 35.2207 8.70898C35.2549 9.05762 35.4053 9.0918 37.0938 9.0918C38.4541 9.0918 38.625 9.07812 38.7617 8.96875C38.9326 8.83203 38.9668 8.53809 38.8301 8.37402C38.7617 8.28516 38.4815 8.27148 37.0801 8.27148C35.6377 8.27148 35.4053 8.28516 35.3096 8.38086Z" fill="#C8C8C8"/>
<path d="M33.2656 11.8398C33.1152 12.0518 33.1289 12.1475 33.3271 12.3389L33.4912 12.5098H35.0225C36.4717 12.5098 36.5674 12.5029 36.7383 12.3662C36.9434 12.209 36.9639 12.0586 36.8066 11.8398C36.7041 11.6895 36.6836 11.6895 35.0361 11.6895C33.3887 11.6895 33.3682 11.6895 33.2656 11.8398Z" fill="#C8C8C8"/>
<path d="M37.9824 11.7988C37.8457 11.9287 37.8389 12.2637 37.9756 12.373C38.1602 12.5234 38.5772 12.5371 38.7549 12.3935C38.9326 12.25 38.9668 11.956 38.8301 11.792C38.7139 11.6484 38.126 11.6553 37.9824 11.7988Z" fill="#C8C8C8"/>
<path d="M32.4453 15.3262C32.2881 15.5449 32.3086 15.6953 32.5137 15.8525C32.6641 15.9688 32.7939 15.9961 33.2588 15.9961C33.7236 15.9961 33.8535 15.9688 34.0039 15.8525C34.209 15.6953 34.2295 15.5449 34.0723 15.3262C33.9766 15.1895 33.915 15.1758 33.2588 15.1758C32.6025 15.1758 32.541 15.1895 32.4453 15.3262Z" fill="#C8C8C8"/>
<path d="M35.248 15.2852C35.084 15.4424 35.1113 15.7637 35.2891 15.8867C35.4189 15.9756 35.706 15.9961 37.0391 15.9961H38.6318L38.8027 15.8252C38.9326 15.6953 38.96 15.6133 38.9258 15.4971C38.8301 15.1758 38.8369 15.1758 37.0459 15.1758C35.5967 15.1758 35.3369 15.1895 35.248 15.2852Z" fill="#C8C8C8"/>
<path d="M24.4336 19.79C24.3037 19.9883 24.3584 20.2002 24.5772 20.3437C24.707 20.4326 24.9531 20.4463 26.0127 20.4258C27.1817 20.4053 27.2979 20.3916 27.3867 20.2754C27.5098 20.0976 27.5098 19.8584 27.3731 19.7285C27.2842 19.6328 27.0518 19.6191 25.9102 19.6191H24.543L24.4336 19.79Z" fill="#C8C8C8"/>
<path d="M28.5557 19.7422C28.3848 19.9267 28.4121 20.1387 28.6309 20.3027C28.7744 20.4189 28.8769 20.4463 29.1025 20.4189C29.2666 20.4053 29.4443 20.3506 29.499 20.3027C29.6221 20.2002 29.6357 19.8174 29.5195 19.7012C29.3828 19.5644 28.6855 19.5986 28.5557 19.7422Z" fill="#C8C8C8"/>
<path d="M30.3604 19.7148C30.3125 19.7695 30.2852 19.9199 30.2988 20.043C30.333 20.4326 30.3672 20.4395 33.4024 20.4395C36.0752 20.4395 36.1504 20.4326 36.3281 20.2959C36.5332 20.1318 36.5606 19.8926 36.3828 19.7354C36.2666 19.6328 35.959 19.6191 33.3477 19.6191C30.9072 19.6191 30.4287 19.6328 30.3604 19.7148Z" fill="#C8C8C8"/>
<path d="M37.2236 19.7285C37.0596 19.8926 37.1142 20.248 37.3262 20.3574C37.5791 20.4873 38.6523 20.4394 38.8027 20.2891C38.9394 20.1592 38.9531 19.8652 38.8301 19.7217C38.7002 19.5644 37.3809 19.5713 37.2236 19.7285Z" fill="#C8C8C8"/>
<path d="M24.4336 23.8916C24.29 24.1104 24.3857 24.377 24.6523 24.4727C24.748 24.5137 25.7529 24.541 27.0244 24.541C29.4717 24.541 29.5537 24.5273 29.5879 24.1445C29.6289 23.707 29.6973 23.7207 26.9971 23.7207H24.543L24.4336 23.8916Z" fill="#C8C8C8"/>
<path d="M30.7432 23.8438C30.6201 23.9736 30.5928 24.1787 30.6816 24.3086C30.8047 24.5 31.0644 24.541 32.1445 24.541C33.4228 24.541 33.5869 24.4932 33.6211 24.1445C33.6621 23.7344 33.6211 23.7207 32.165 23.7207C30.9824 23.7207 30.8389 23.7344 30.7432 23.8438Z" fill="#C8C8C8"/>
<path d="M34.1338 23.8027C33.9014 24.1035 34.0312 24.4385 34.4072 24.5068C34.8926 24.6025 35.2685 24.2402 35.043 23.8916C34.9473 23.7412 34.8789 23.7207 34.5644 23.7207C34.3525 23.7207 34.168 23.7549 34.1338 23.8027Z" fill="#C8C8C8"/>
<path d="M35.8496 23.8916C35.7539 24.0352 35.7471 24.1035 35.8086 24.2402C35.9385 24.5137 36.1641 24.5479 37.4766 24.5273C38.7959 24.5068 38.9189 24.4727 38.9189 24.1035C38.9189 23.7344 38.8643 23.7207 37.3535 23.7207H35.959L35.8496 23.8916Z" fill="#C8C8C8"/>
<path d="M0.40914 46L2.30914 39.08H3.98914L5.88914 46H5.12914L4.62914 44.22H1.66914L1.16914 46H0.40914ZM2.88914 39.74L1.83914 43.53H4.45914L3.40914 39.74H2.88914ZM9.88969 41.65H8.29969V44.04C8.29969 44.6133 8.33969 44.99 8.41969 45.17C8.50635 45.35 8.70635 45.44 9.01969 45.44L9.90969 45.38L9.95969 46C9.51302 46.0733 9.17302 46.11 8.93969 46.11C8.41969 46.11 8.05969 45.9833 7.85969 45.73C7.65969 45.4767 7.55969 44.9933 7.55969 44.28V41.65H6.84969V41H7.55969V39.47H8.29969V41H9.88969V41.65ZM13.9955 41.65H12.4055V44.04C12.4055 44.6133 12.4455 44.99 12.5255 45.17C12.6122 45.35 12.8122 45.44 13.1255 45.44L14.0155 45.38L14.0655 46C13.6189 46.0733 13.2789 46.11 13.0455 46.11C12.5255 46.11 12.1655 45.9833 11.9655 45.73C11.7655 45.4767 11.6655 44.9933 11.6655 44.28V41.65H10.9555V41H11.6655V39.47H12.4055V41H13.9955V41.65ZM18.9114 45.38L19.2014 45.35L19.2214 45.94C18.4614 46.0467 17.8114 46.1 17.2714 46.1C16.5514 46.1 16.0414 45.8933 15.7414 45.48C15.4414 45.06 15.2914 44.41 15.2914 43.53C15.2914 41.7767 15.9881 40.9 17.3814 40.9C18.0547 40.9 18.5581 41.09 18.8914 41.47C19.2247 41.8433 19.3914 42.4333 19.3914 43.24L19.3514 43.81H16.0514C16.0514 44.3633 16.1514 44.7733 16.3514 45.04C16.5514 45.3067 16.8981 45.44 17.3914 45.44C17.8914 45.44 18.3981 45.42 18.9114 45.38ZM18.6414 43.21C18.6414 42.5967 18.5414 42.1633 18.3414 41.91C18.1481 41.6567 17.8281 41.53 17.3814 41.53C16.9414 41.53 16.6081 41.6633 16.3814 41.93C16.1614 42.1967 16.0481 42.6233 16.0414 43.21H18.6414ZM21.9102 46H21.1602V41H21.9002V41.35C22.4402 41.05 22.9569 40.9 23.4502 40.9C24.1169 40.9 24.5636 41.08 24.7902 41.44C25.0236 41.8 25.1402 42.44 25.1402 43.36V46H24.4002V43.38C24.4002 42.6867 24.3302 42.2133 24.1902 41.96C24.0569 41.7 23.7669 41.57 23.3202 41.57C23.1069 41.57 22.8802 41.6033 22.6402 41.67C22.4069 41.73 22.2269 41.79 22.1002 41.85L21.9102 41.94V46ZM30.9713 38.82V46H30.2313V45.66C29.718 45.9533 29.2113 46.1 28.7113 46.1C28.4447 46.1 28.2113 46.0667 28.0113 46C27.8113 45.9333 27.6247 45.8133 27.4513 45.64C27.0913 45.28 26.9113 44.6167 26.9113 43.65C26.9113 42.6767 27.0713 41.9767 27.3913 41.55C27.718 41.1167 28.2547 40.9 29.0013 40.9C29.388 40.9 29.798 40.9433 30.2313 41.03V38.82H30.9713ZM28.0313 45.1C28.138 45.2267 28.2513 45.3133 28.3713 45.36C28.4913 45.4067 28.6447 45.43 28.8313 45.43C29.0247 45.43 29.238 45.4 29.4713 45.34C29.7113 45.2733 29.898 45.21 30.0313 45.15L30.2313 45.06V41.67C29.8047 41.59 29.408 41.55 29.0413 41.55C28.5347 41.55 28.1813 41.7133 27.9813 42.04C27.7813 42.36 27.6813 42.86 27.6813 43.54C27.6813 44.3133 27.798 44.8333 28.0313 45.1ZM36.5543 42.51V45.07C36.5743 45.3167 36.7676 45.4633 37.1343 45.51L37.1043 46.1C36.5776 46.1 36.181 45.9667 35.9143 45.7C35.3143 45.9667 34.7143 46.1 34.1143 46.1C33.6543 46.1 33.3043 45.97 33.0643 45.71C32.8243 45.45 32.7043 45.0767 32.7043 44.59C32.7043 44.1033 32.8276 43.7467 33.0743 43.52C33.321 43.2867 33.7076 43.1433 34.2343 43.09L35.8043 42.94V42.51C35.8043 42.17 35.731 41.9267 35.5843 41.78C35.4376 41.6333 35.2376 41.56 34.9843 41.56C34.451 41.56 33.8976 41.5933 33.3243 41.66L33.0143 41.69L32.9843 41.12C33.7176 40.9733 34.3676 40.9 34.9343 40.9C35.501 40.9 35.911 41.03 36.1643 41.29C36.4243 41.55 36.5543 41.9567 36.5543 42.51ZM33.4743 44.55C33.4743 45.1633 33.7276 45.47 34.2343 45.47C34.6876 45.47 35.1343 45.3933 35.5743 45.24L35.8043 45.16V43.51L34.3243 43.65C34.0243 43.6767 33.8076 43.7633 33.6743 43.91C33.541 44.0567 33.4743 44.27 33.4743 44.55ZM39.3841 46H38.6341V41H39.3741V41.35C39.9141 41.05 40.4307 40.9 40.9241 40.9C41.5907 40.9 42.0374 41.08 42.2641 41.44C42.4974 41.8 42.6141 42.44 42.6141 43.36V46H41.8741V43.38C41.8741 42.6867 41.8041 42.2133 41.6641 41.96C41.5307 41.7 41.2407 41.57 40.7941 41.57C40.5807 41.57 40.3541 41.6033 40.1141 41.67C39.8807 41.73 39.7007 41.79 39.5741 41.85L39.3841 41.94V46ZM46.4752 40.9C46.6952 40.9 47.0685 40.94 47.5952 41.02L47.8352 41.05L47.8052 41.66C47.2718 41.6 46.8785 41.57 46.6252 41.57C46.0585 41.57 45.6718 41.7067 45.4652 41.98C45.2652 42.2467 45.1652 42.7467 45.1652 43.48C45.1652 44.2067 45.2585 44.7133 45.4452 45C45.6385 45.2867 46.0352 45.43 46.6352 45.43L47.8152 45.34L47.8452 45.96C47.2252 46.0533 46.7618 46.1 46.4552 46.1C45.6752 46.1 45.1352 45.9 44.8352 45.5C44.5418 45.1 44.3952 44.4267 44.3952 43.48C44.3952 42.5267 44.5552 41.86 44.8752 41.48C45.1952 41.0933 45.7285 40.9 46.4752 40.9ZM52.902 45.38L53.192 45.35L53.212 45.94C52.452 46.0467 51.802 46.1 51.262 46.1C50.542 46.1 50.032 45.8933 49.732 45.48C49.432 45.06 49.282 44.41 49.282 43.53C49.282 41.7767 49.9787 40.9 51.372 40.9C52.0454 40.9 52.5487 41.09 52.882 41.47C53.2154 41.8433 53.382 42.4333 53.382 43.24L53.342 43.81H50.042C50.042 44.3633 50.142 44.7733 50.342 45.04C50.542 45.3067 50.8887 45.44 51.382 45.44C51.882 45.44 52.3887 45.42 52.902 45.38ZM52.632 43.21C52.632 42.5967 52.532 42.1633 52.332 41.91C52.1387 41.6567 51.8187 41.53 51.372 41.53C50.932 41.53 50.5987 41.6633 50.372 41.93C50.152 42.1967 50.0387 42.6233 50.032 43.21H52.632Z" fill="#C8C8C8"/>
</svg>
