<svg width="35" height="49" viewBox="0 0 35 49" fill="none" xmlns="http://www.w3.org/2000/svg">
<path d="M16.3037 1.6748C15.6748 1.81152 14.916 2.12598 14.3896 2.47461C13.8906 2.80273 1.6748 13.0088 1.03906 13.624C0.574217 14.0752 0.170897 14.8818 0.0546862 15.5723C-0.252931 17.418 1.0459 19.2705 2.89844 19.6191L3.34961 19.7012V24.9785C3.34961 30.7891 3.34961 30.7275 3.78027 31.541C4.06738 32.0947 4.7168 32.7441 5.25 33.0107C6.07715 33.4277 6.05664 33.4277 10.541 33.4277H14.6221L14.6426 28.6631L14.6631 23.8916L14.8818 23.4268C15.4287 22.2715 16.666 21.5947 17.8965 21.7861C19.0586 21.9639 19.9746 22.7773 20.2617 23.8916C20.3574 24.2402 20.3711 24.958 20.3711 28.8613V33.4277H24.4932C28.9639 33.4277 28.9502 33.4277 29.7295 33.0381C30.3037 32.751 30.9668 32.0605 31.2607 31.4453C31.3906 31.165 31.5342 30.748 31.5752 30.5293C31.623 30.2627 31.6504 28.335 31.6504 24.917V19.7148L32.0811 19.6328C32.9971 19.4619 34.0225 18.751 34.4736 17.9717C35.3076 16.543 35.1025 14.8271 33.9609 13.6445C33.3936 13.0566 21.2324 2.87793 20.6104 2.47461C20.0566 2.1123 19.3457 1.81836 18.6621 1.6748C18.0742 1.55176 16.8643 1.55176 16.3037 1.6748ZM18.8672 3.13086C19.1133 3.21289 19.5029 3.39062 19.7354 3.53418C20.3164 3.88281 32.9902 14.5264 33.2363 14.8613C33.8379 15.6885 33.708 16.9463 32.9492 17.7051C32.4844 18.1699 32.1699 18.2793 31.1582 18.3066L30.2832 18.334L30.2695 24.3633L30.249 30.3857L30.0234 30.8438C29.7568 31.3838 29.3877 31.7256 28.8682 31.9238C28.5195 32.0537 28.335 32.0605 25.1221 32.0605H21.7451L21.7178 27.9111C21.6973 23.3857 21.7109 23.6045 21.2939 22.7432C20.5557 21.2461 18.9014 20.2822 17.2402 20.3984C16.5498 20.4395 15.6953 20.7197 15.1553 21.082C14.6152 21.4443 14.0068 22.1279 13.7197 22.709C13.2549 23.625 13.2617 23.584 13.2617 28.041V32.0674L9.76172 32.0469L6.25488 32.0264L5.96094 31.8691C5.50976 31.6299 5.14746 31.2676 4.94238 30.8438L4.75098 30.4541L4.73047 24.3906L4.7168 18.334L3.8418 18.3066C2.83008 18.2793 2.51562 18.1699 2.05078 17.7051C1.3125 16.9668 1.16894 15.7979 1.70898 14.9502C1.8457 14.7314 3.65039 13.1797 8.18262 9.38574C11.6348 6.49414 14.6289 3.99219 14.834 3.82812C15.2646 3.49316 15.9004 3.18555 16.4609 3.04199C17.0352 2.89844 18.293 2.94629 18.8672 3.13086Z" fill="#FA3D03"/>
<path d="M7.54469 45V41.87H4.02469V45H3.25469V38.08H4.02469V41.18H7.54469V38.08H8.30469V45H7.54469ZM10.2039 42.49C10.2039 41.5767 10.3672 40.9167 10.6939 40.51C11.0206 40.1033 11.5706 39.9 12.3439 39.9C13.1239 39.9 13.6739 40.1033 13.9939 40.51C14.3206 40.9167 14.4839 41.5767 14.4839 42.49C14.4839 43.4033 14.3306 44.0667 14.0239 44.48C13.7172 44.8933 13.1572 45.1 12.3439 45.1C11.5306 45.1 10.9706 44.8933 10.6639 44.48C10.3572 44.0667 10.2039 43.4033 10.2039 42.49ZM10.9739 42.48C10.9739 43.2067 11.0606 43.7167 11.2339 44.01C11.4139 44.3033 11.7839 44.45 12.3439 44.45C12.9106 44.45 13.2806 44.3067 13.4539 44.02C13.6272 43.7267 13.7139 43.2133 13.7139 42.48C13.7139 41.7467 13.6172 41.2433 13.4239 40.97C13.2306 40.69 12.8706 40.55 12.3439 40.55C11.8239 40.55 11.4639 40.69 11.2639 40.97C11.0706 41.2433 10.9739 41.7467 10.9739 42.48ZM17.0571 45H16.3071V40H17.0471V40.35C17.5471 40.05 18.0338 39.9 18.5071 39.9C19.1271 39.9 19.5604 40.07 19.8071 40.41C20.0271 40.2767 20.3104 40.16 20.6571 40.06C21.0104 39.9533 21.3204 39.9 21.5871 39.9C22.2538 39.9 22.7004 40.08 22.9271 40.44C23.1604 40.7933 23.2771 41.4333 23.2771 42.36V45H22.5271V42.38C22.5271 41.6867 22.4604 41.2133 22.3271 40.96C22.1938 40.7 21.9104 40.57 21.4771 40.57C21.2571 40.57 21.0304 40.6033 20.7971 40.67C20.5638 40.73 20.3838 40.79 20.2571 40.85L20.0671 40.94C20.1538 41.16 20.1971 41.6467 20.1971 42.4V45H19.4471V42.42C19.4471 41.7 19.3804 41.2133 19.2471 40.96C19.1204 40.7 18.8371 40.57 18.3971 40.57C18.1838 40.57 17.9638 40.6033 17.7371 40.67C17.5171 40.73 17.3471 40.79 17.2271 40.85L17.0571 40.94V45ZM28.6665 44.38L28.9565 44.35L28.9765 44.94C28.2165 45.0467 27.5665 45.1 27.0265 45.1C26.3065 45.1 25.7965 44.8933 25.4965 44.48C25.1965 44.06 25.0465 43.41 25.0465 42.53C25.0465 40.7767 25.7432 39.9 27.1365 39.9C27.8098 39.9 28.3132 40.09 28.6465 40.47C28.9798 40.8433 29.1465 41.4333 29.1465 42.24L29.1065 42.81H25.8065C25.8065 43.3633 25.9065 43.7733 26.1065 44.04C26.3065 44.3067 26.6532 44.44 27.1465 44.44C27.6465 44.44 28.1532 44.42 28.6665 44.38ZM28.3965 42.21C28.3965 41.5967 28.2965 41.1633 28.0965 40.91C27.9032 40.6567 27.5832 40.53 27.1365 40.53C26.6965 40.53 26.3632 40.6633 26.1365 40.93C25.9165 41.1967 25.8032 41.6233 25.7965 42.21H28.3965Z" fill="#FA3D03"/>
</svg>
