<svg width="35" height="52" viewBox="0 0 35 52" fill="none" xmlns="http://www.w3.org/2000/svg">
<path d="M23.5088 0.26661C23.3994 0.375985 23.3105 0.540047 23.3105 0.628914C23.3037 0.717782 23.1875 1.92091 23.0439 3.31544C22.8594 5.10645 22.7978 5.89259 22.8457 6.02247C22.9961 6.45997 23.5908 6.56934 23.9326 6.22755C24.042 6.11817 24.1309 5.96778 24.1309 5.89942C24.1309 5.83106 24.2539 4.6211 24.3975 3.2129C24.6299 0.984383 24.6572 0.622078 24.5752 0.430672C24.3975 0.01368 23.8506 -0.0751872 23.5088 0.26661Z" fill="#C8C8C8"/>
<path d="M12.8721 4.77832C12.4346 4.94238 11.9492 5.26367 11.7305 5.55762C11.6348 5.68066 10.3154 8.29883 8.80468 11.3682L6.0498 16.9463L4.40917 18.0469C2.51562 19.3184 1.96191 19.8242 1.55175 20.6514C1.18945 21.3896 1.07324 21.9639 1.11425 22.832C1.15527 23.7549 1.33984 24.3154 1.85937 25.1016C2.71386 26.373 3.84179 27.0361 5.30468 27.1182C6.1455 27.166 6.79492 27.0361 7.48535 26.6943C7.86132 26.5029 7.97753 26.4688 8.03906 26.5371C8.08007 26.585 9.21484 28.2461 10.5615 30.2354C12.2568 32.7305 13.1045 33.9336 13.3437 34.1455C14.0068 34.7402 14.8887 35.0205 15.6269 34.877C16.8232 34.6309 17.6299 33.8789 17.876 32.7715C18.0059 32.1973 17.9785 31.6846 17.7734 31.165C17.7119 30.9873 16.6523 29.3604 15.4219 27.5488C14.1914 25.7373 13.207 24.2266 13.2412 24.1992C13.2685 24.1719 14.7725 24.0352 16.5771 23.8984C23.4131 23.3584 23.5908 23.3447 24.0078 23.1465C25.2861 22.5381 25.915 20.959 25.7031 18.8945C25.1289 13.3027 19.6055 5.96777 15.0801 4.79199C14.3623 4.60742 13.3779 4.60059 12.8721 4.77832ZM15.0391 6.2002C17.0215 6.84961 19.5781 9.13281 21.4443 11.9287C23.4746 14.957 24.4043 17.4521 24.3223 19.6123C24.2744 20.7949 23.9736 21.4375 23.2832 21.8408C22.8525 22.0938 22.4766 22.1211 21.8476 21.9502C19.1748 21.2188 15.7842 17.7734 13.7402 13.7061C12.7559 11.7578 12.2295 9.93262 12.2227 8.44238C12.2158 7.40332 12.3525 6.91797 12.79 6.48047C13.3506 5.91992 13.959 5.84473 15.0391 6.2002ZM11.2383 10.9512C12.2637 14.9639 15.4424 19.5576 18.8125 21.9229C19.1201 22.1416 19.332 22.3262 19.2773 22.333C18.792 22.415 11.1836 22.9619 11.1426 22.9209C11.0469 22.8115 7.43066 17.4658 7.40331 17.3906C7.37597 17.3154 10.9375 9.95996 10.9785 10.001C10.9922 10.0146 11.1084 10.4385 11.2383 10.9512ZM7.96386 20.6445C8.81835 21.9023 9.60449 23.0645 9.71386 23.2148L9.90527 23.4951L8.52441 24.4385C7.76562 24.958 6.97949 25.457 6.78808 25.5459C5.64648 26.0723 4.36132 25.833 3.44531 24.917C2.13964 23.6182 2.09863 21.6563 3.36328 20.46C3.55468 20.2754 6.37109 18.3135 6.39843 18.3408C6.40527 18.3477 7.10937 19.3867 7.96386 20.6445ZM14.0342 27.8906C15.3467 29.8252 16.4678 31.5068 16.5156 31.6299C16.8164 32.3271 16.3721 33.25 15.6133 33.4961C15.2441 33.6191 14.7178 33.5371 14.3965 33.3115C14.041 33.0518 9.0371 25.7031 9.17382 25.6279C9.22167 25.6006 9.66601 25.2998 10.1514 24.958C10.9717 24.3838 11.0605 24.3428 11.3408 24.3564L11.6416 24.3701L14.0342 27.8906Z" fill="#C8C8C8"/>
<path d="M16.2217 11.3066C15.7158 11.4365 14.9844 11.8057 14.8613 12.0039C14.7998 12.0928 14.752 12.2773 14.752 12.4209C14.752 12.6191 14.7998 12.7148 14.9639 12.8652C15.2441 13.1182 15.4834 13.1113 16.0098 12.831C16.3994 12.626 16.4814 12.6123 17.083 12.6123C17.6436 12.6123 17.7939 12.6396 18.0811 12.7832C19.0449 13.2549 19.5781 14.3691 19.3184 15.3808C19.1611 15.9824 19.0107 16.208 18.3613 16.8027C18.0332 17.1103 18.0127 17.4795 18.3135 17.7803C18.6826 18.1494 19.0791 18.0332 19.7354 17.3633C21.2598 15.8047 20.9932 13.1113 19.1885 11.8672C18.3887 11.3203 17.1172 11.0742 16.2217 11.3066Z" fill="#C8C8C8"/>
<path d="M30.6523 5.55762C28.6562 6.83594 26.3183 8.41504 26.2568 8.53125C26.0244 8.96875 26.3525 9.50195 26.8516 9.50195C27.0908 9.50195 27.4121 9.31738 29.4697 7.96387C30.7617 7.11621 31.9033 6.34375 32.0127 6.24805C32.2793 5.99512 32.2724 5.59863 31.999 5.3252C31.6846 5.01074 31.4521 5.05176 30.6523 5.55762Z" fill="#C8C8C8"/>
<path d="M27.6103 12.749C27.2207 12.9609 27.1933 13.5488 27.5556 13.8223C27.7607 13.9795 33.2842 14.9981 33.5713 14.9365C33.8242 14.8818 34.043 14.6289 34.084 14.3418C34.1181 14.1436 34.0908 14.0615 33.9267 13.8838C33.7627 13.6992 33.6533 13.6445 33.2226 13.5693C30.4267 13.0567 28.082 12.6465 27.9521 12.6465C27.8633 12.6533 27.706 12.6943 27.6103 12.749Z" fill="#C8C8C8"/>
<path d="M7.28106 48V41.08H8.05106V48H7.28106ZM10.962 48H10.212V43H10.952V43.35C11.492 43.05 12.0087 42.9 12.502 42.9C13.1687 42.9 13.6153 43.08 13.842 43.44C14.0753 43.8 14.192 44.44 14.192 45.36V48H13.452V45.38C13.452 44.6867 13.382 44.2133 13.242 43.96C13.1087 43.7 12.8187 43.57 12.372 43.57C12.1587 43.57 11.932 43.6033 11.692 43.67C11.4587 43.73 11.2787 43.79 11.152 43.85L10.962 43.94V48ZM17.1431 43.65V48H16.3931V43.65H15.7631V43H16.3931V42.55C16.3931 41.8433 16.4931 41.3633 16.6931 41.11C16.8931 40.85 17.2431 40.72 17.7431 40.72L18.7531 40.79L18.7431 41.41C18.3698 41.3967 18.0598 41.39 17.8131 41.39C17.5731 41.39 17.3998 41.47 17.2931 41.63C17.1931 41.79 17.1431 42.1 17.1431 42.56V43H18.5931V43.65H17.1431ZM19.7857 45.49C19.7857 44.5767 19.9491 43.9167 20.2757 43.51C20.6024 43.1033 21.1524 42.9 21.9257 42.9C22.7057 42.9 23.2557 43.1033 23.5757 43.51C23.9024 43.9167 24.0657 44.5767 24.0657 45.49C24.0657 46.4033 23.9124 47.0667 23.6057 47.48C23.2991 47.8933 22.7391 48.1 21.9257 48.1C21.1124 48.1 20.5524 47.8933 20.2457 47.48C19.9391 47.0667 19.7857 46.4033 19.7857 45.49ZM20.5557 45.48C20.5557 46.2067 20.6424 46.7167 20.8157 47.01C20.9957 47.3033 21.3657 47.45 21.9257 47.45C22.4924 47.45 22.8624 47.3067 23.0357 47.02C23.2091 46.7267 23.2957 46.2133 23.2957 45.48C23.2957 44.7467 23.1991 44.2433 23.0057 43.97C22.8124 43.69 22.4524 43.55 21.9257 43.55C21.4057 43.55 21.0457 43.69 20.8457 43.97C20.6524 44.2433 20.5557 44.7467 20.5557 45.48Z" fill="#C8C8C8"/>
</svg>
