<?xml version="1.0" standalone="no"?>
<!DOCTYPE svg PUBLIC "-//W3C//DTD SVG 20010904//EN"
 "http://www.w3.org/TR/2001/REC-SVG-20010904/DTD/svg10.dtd">
<svg version="1.0" xmlns="http://www.w3.org/2000/svg"
 width="756.000000pt" height="737.000000pt" viewBox="0 0 756.000000 737.000000"
 preserveAspectRatio="xMidYMid meet">

<g transform="translate(0.000000,737.000000) scale(0.100000,-0.100000)"
fill="#000000" stroke="none">
<path d="M3520 7251 c-188 -86 -284 -125 -365 -145 -251 -65 -470 -159 -612
-264 -311 -231 -356 -563 -127 -929 163 -259 411 -470 669 -570 66 -25 152
-59 190 -76 183 -77 336 -199 369 -293 10 -27 26 -68 37 -92 28 -63 27 -65
-39 -59 -75 6 -104 22 -192 102 -136 126 -251 187 -516 278 -89 31 -195 72
-235 93 -239 119 -471 341 -554 528 -112 253 -104 552 24 878 22 54 36 100 32
103 -4 2 -61 -14 -126 -36 -402 -134 -652 -342 -742 -614 -22 -68 -26 -98 -26
-195 0 -236 90 -455 258 -625 108 -109 156 -133 287 -145 129 -11 584 -74 738
-101 629 -111 967 -327 1078 -689 33 -108 47 -234 46 -420 0 -176 -1 -184 -48
-355 -31 -111 -66 -146 -108 -108 -38 33 -59 99 -68 206 -6 85 -13 116 -44
187 -94 217 -202 391 -319 516 -123 132 -237 204 -417 263 -136 45 -239 48
-660 21 -559 -36 -863 -20 -1101 60 -152 51 -273 123 -355 212 -43 46 -47 56
-110 271 -23 78 -42 127 -50 127 -19 0 -101 -104 -134 -170 -48 -96 -64 -164
-63 -280 2 -216 86 -411 243 -567 103 -101 219 -144 395 -144 141 -1 286 28
585 117 504 148 737 194 990 194 272 0 437 -65 601 -236 130 -136 185 -241
284 -533 34 -102 72 -213 84 -246 28 -74 26 -169 -4 -191 -45 -33 -132 3 -172
72 -77 130 -154 236 -224 309 -183 190 -424 313 -677 346 -71 9 -103 8 -175
-4 -150 -26 -247 -82 -466 -271 -156 -135 -299 -245 -353 -272 -97 -49 -213
-68 -418 -68 -169 0 -194 3 -285 27 -238 64 -440 203 -579 400 l-41 58 -9 -28
c-5 -15 -9 -109 -9 -208 -1 -205 14 -280 79 -413 132 -269 474 -374 873 -267
196 53 289 104 405 224 141 145 347 330 439 392 116 80 253 144 374 175 88 23
112 25 238 21 108 -3 156 -10 210 -27 212 -67 368 -204 477 -416 57 -111 97
-234 145 -439 63 -271 50 -417 -45 -507 -56 -54 -111 -68 -184 -48 -78 22
-137 102 -138 187 0 23 18 115 40 205 84 336 59 514 -81 585 -94 48 -395 86
-504 63 -155 -32 -189 -192 -64 -304 70 -64 102 -74 211 -68 138 7 153 -10 98
-109 -118 -212 -144 -283 -138 -377 5 -88 36 -152 109 -222 64 -63 198 -143
278 -166 85 -25 263 -15 364 20 70 25 90 27 177 24 79 -2 102 -7 119 -22 49
-44 14 -144 -85 -243 -64 -65 -95 -83 -144 -83 -38 0 -151 -41 -194 -71 -94
-64 -85 -155 19 -195 55 -21 125 -15 185 16 23 12 106 82 185 157 162 153 278
241 327 249 49 8 149 -63 333 -236 170 -159 212 -188 284 -197 124 -14 220 78
166 161 -34 51 -170 116 -243 116 -95 0 -252 170 -252 273 0 87 159 111 325
49 64 -24 83 -26 215 -27 l145 0 89 45 c216 109 329 269 297 420 -14 67 -52
154 -111 259 -86 153 -79 167 76 158 105 -6 138 5 207 71 129 125 87 278 -84
302 -37 5 -107 5 -173 -1 -223 -19 -312 -46 -374 -113 -55 -59 -66 -114 -59
-280 4 -109 12 -158 46 -291 45 -175 45 -201 5 -272 -28 -48 -107 -93 -163
-93 -85 1 -168 71 -196 164 -33 111 -4 350 75 617 130 437 409 669 804 669
137 0 236 -20 351 -69 191 -81 312 -170 565 -416 113 -110 225 -212 250 -227
184 -107 522 -153 725 -99 128 34 200 74 286 160 82 82 132 169 164 286 28
100 33 516 7 515 -4 0 -27 -30 -51 -66 -160 -237 -418 -407 -691 -455 -101
-17 -284 -15 -399 5 -155 27 -226 70 -481 285 -262 222 -300 248 -415 287
-240 82 -592 -18 -859 -243 -84 -70 -190 -198 -258 -313 -64 -106 -92 -137
-139 -152 -111 -33 -139 65 -70 242 17 41 50 140 76 220 128 407 314 626 610
720 55 18 102 24 223 28 261 8 467 -28 969 -172 412 -118 496 -136 645 -136
189 0 279 33 395 143 290 276 336 706 104 967 -32 36 -53 52 -59 45 -5 -5 -31
-82 -56 -169 -26 -87 -54 -172 -62 -187 -8 -16 -41 -50 -73 -77 -125 -105
-252 -164 -441 -205 -238 -53 -486 -59 -983 -26 -408 27 -513 23 -662 -26 -60
-19 -138 -51 -172 -71 -190 -106 -354 -295 -487 -560 -93 -187 -116 -254 -116
-338 0 -155 -83 -272 -136 -191 -18 27 -44 114 -70 230 -20 90 -14 463 10 566
85 372 344 587 865 719 185 46 667 121 971 150 130 12 172 33 271 130 169 168
262 369 275 600 19 309 -169 574 -531 751 -110 54 -354 144 -363 134 -3 -2 14
-53 36 -112 77 -206 109 -381 99 -546 -8 -128 -29 -211 -84 -327 -56 -120
-135 -223 -243 -318 -166 -145 -294 -215 -560 -307 -253 -87 -367 -150 -511
-282 -81 -73 -124 -93 -198 -93 -46 0 -49 6 -22 58 11 20 28 59 37 87 21 59
93 140 174 195 78 53 193 108 362 174 191 74 321 159 468 305 172 169 272 318
332 492 29 85 32 105 33 214 0 146 -21 218 -94 322 -137 195 -383 333 -781
438 -92 24 -193 63 -384 149 -142 64 -262 116 -265 115 -3 -1 -121 -54 -261
-118z m715 -573 c128 -42 235 -129 280 -229 33 -74 44 -190 25 -270 -26 -112
-117 -257 -211 -335 -47 -39 -245 -143 -233 -122 4 7 22 34 41 59 83 116 130
269 140 456 10 197 -28 323 -129 424 l-50 50 38 -7 c22 -3 66 -15 99 -26z
m-805 -20 c-55 -55 -105 -159 -120 -251 -14 -82 -7 -232 16 -347 18 -85 77
-218 130 -292 19 -28 34 -51 32 -53 -7 -7 -167 80 -217 118 -68 52 -143 144
-181 222 -40 79 -63 194 -55 264 13 106 32 148 100 220 72 76 151 123 241 145
97 24 102 21 54 -26z m324 -3619 c55 -15 106 2 164 54 26 23 60 53 76 67 l29
25 -6 -90 c-9 -124 7 -256 48 -413 38 -143 41 -172 23 -190 -14 -14 -62 -16
-87 -2 -22 11 -30 31 -76 190 -23 79 -44 131 -56 142 -44 37 -124 32 -163 -11
-8 -9 -33 -79 -55 -155 -22 -76 -47 -146 -57 -157 -22 -24 -86 -26 -105 -3
-11 14 -8 39 24 163 48 189 60 282 54 413 l-6 107 76 -64 c47 -41 92 -69 117
-76z"/>
<path d="M1019 6083 c-26 -28 -128 -210 -169 -299 -101 -218 -140 -418 -109
-553 27 -119 110 -226 215 -279 74 -36 127 -49 254 -62 178 -19 421 22 529 88
44 27 64 52 41 52 -31 0 -232 85 -299 127 -143 89 -264 233 -324 389 -38 95
-66 212 -95 390 -25 155 -28 165 -43 147z"/>
<path d="M6546 6078 c-3 -7 -12 -62 -21 -123 -51 -339 -120 -515 -263 -667
-102 -108 -205 -172 -375 -233 -49 -17 -88 -36 -88 -41 1 -16 140 -82 209 -98
211 -51 464 -38 612 32 65 30 149 111 180 173 105 204 42 503 -182 876 -52 87
-65 102 -72 81z"/>
<path d="M83 4583 c-4 -21 -8 -110 -8 -198 0 -141 3 -168 23 -230 46 -136 112
-226 225 -305 124 -88 317 -146 453 -138 142 9 286 110 366 256 l28 50 -178 5
c-201 5 -258 18 -399 87 -160 79 -301 216 -426 412 -34 54 -65 98 -69 98 -4 0
-11 -17 -15 -37z"/>
<path d="M7454 4578 c-122 -196 -240 -327 -371 -415 -157 -104 -298 -143 -518
-143 -74 0 -136 -4 -139 -8 -9 -15 58 -116 115 -173 34 -34 84 -70 125 -90 66
-33 73 -34 179 -33 91 1 124 6 195 28 293 96 447 281 476 576 7 74 -12 286
-27 296 -5 2 -20 -15 -35 -38z"/>
<path d="M7370 2993 c-126 -107 -245 -176 -352 -207 -144 -42 -317 -37 -470
14 -50 17 -92 29 -94 27 -7 -7 26 -118 47 -159 32 -63 113 -143 169 -167 110
-48 274 -49 409 -5 174 58 292 199 342 410 11 47 19 98 17 114 l-3 28 -65 -55z"/>
<path d="M147 2998 c30 -251 149 -425 341 -498 78 -30 197 -42 296 -31 145 17
246 86 302 206 24 52 50 143 42 150 -2 2 -46 -9 -97 -26 -176 -56 -346 -56
-506 2 -93 34 -229 118 -311 192 -29 26 -56 47 -62 47 -6 0 -8 -17 -5 -42z"/>
<path d="M3017 2694 c-54 -29 -62 -100 -18 -145 74 -73 191 6 151 102 -13 31
-55 59 -87 59 -10 -1 -31 -8 -46 -16z"/>
<path d="M4485 2701 c-47 -20 -70 -73 -53 -121 21 -61 95 -78 147 -34 77 64
-2 194 -94 155z"/>
<path d="M1077 2394 c-178 -120 -363 -131 -580 -32 -37 17 -70 28 -73 25 -11
-11 57 -133 102 -185 30 -34 67 -62 112 -84 59 -29 76 -33 147 -33 148 0 270
57 315 146 36 70 50 189 22 189 -4 0 -25 -12 -45 -26z"/>
<path d="M6450 2367 c0 -149 93 -243 274 -278 72 -13 107 -11 182 12 60 19 77
30 134 88 61 62 132 182 118 197 -4 3 -41 -10 -85 -29 -205 -90 -371 -83 -546
23 -36 22 -68 40 -71 40 -4 0 -6 -24 -6 -53z"/>
<path d="M3270 2105 c-107 -74 -163 -78 -577 -43 -254 21 -267 21 -383 5 -255
-36 -353 -82 -889 -415 -30 -18 -30 -19 124 -72 335 -115 781 -208 1205 -252
202 -20 656 -16 825 7 176 25 245 25 420 0 187 -26 644 -27 875 -2 289 32 605
91 875 162 130 34 377 114 410 133 17 9 16 11 -6 25 -561 357 -717 421 -1024
420 -82 0 -196 -5 -252 -12 -178 -19 -406 -25 -458 -12 -26 6 -77 32 -113 57
-69 48 -82 46 -82 -8 0 -66 111 -107 471 -173 254 -47 317 -63 408 -110 64
-32 140 -101 167 -151 l19 -36 -35 -29 c-51 -44 -183 -106 -275 -130 -65 -18
-109 -22 -235 -22 -237 0 -416 44 -642 160 -105 53 -110 57 -160 131 -64 93
-108 126 -159 119 -54 -7 -85 -33 -140 -114 -31 -45 -66 -84 -92 -100 -111
-70 -317 -147 -482 -179 -131 -25 -354 -23 -460 5 -97 25 -250 99 -288 138
l-27 29 32 49 c83 125 224 184 583 245 99 17 209 38 245 47 88 21 186 66 199
92 11 20 6 67 -8 75 -3 2 -35 -15 -71 -39z m-1050 -159 c0 -2 -31 -27 -68 -55
-119 -88 -192 -178 -192 -236 0 -30 2 -30 -142 9 l-80 22 118 92 c127 98 208
146 270 161 42 10 94 14 94 7z m3294 -35 c88 -40 316 -200 316 -222 0 -4 -39
-16 -87 -28 -49 -12 -95 -24 -103 -26 -12 -4 -19 7 -28 39 -14 52 -93 143
-186 213 -34 26 -65 51 -71 56 -21 20 95 -3 159 -32z m-3283 -143 c-42 -55
-65 -123 -55 -163 7 -29 9 -29 -70 -10 -94 24 -90 21 -69 56 39 66 155 152
230 168 2 1 -15 -22 -36 -51z m3174 8 c61 -33 150 -126 142 -149 -3 -11 -51
-28 -113 -40 l-32 -6 -4 59 c-4 52 -10 66 -53 121 -55 70 -47 72 60 15z"/>
<path d="M6341 2112 c-5 -10 -12 -34 -16 -54 -19 -103 90 -213 225 -225 72 -7
141 21 201 83 l44 45 -60 -6 c-77 -9 -176 9 -238 42 -26 15 -70 50 -97 79 -43
45 -51 50 -59 36z"/>
<path d="M1174 2067 c-28 -29 -73 -64 -100 -77 -43 -22 -62 -25 -166 -25 -65
0 -118 -3 -118 -7 0 -3 23 -26 50 -51 106 -95 225 -102 337 -18 55 42 83 90
83 143 0 36 -17 88 -29 88 -3 -1 -29 -25 -57 -53z"/>
<path d="M1010 1541 c-97 -20 -152 -81 -152 -171 0 -84 51 -147 141 -174 89
-26 161 5 194 85 27 63 48 69 122 36 83 -39 80 -54 -43 -199 -13 -15 -9 -19
35 -41 57 -29 183 -71 273 -92 123 -27 215 -36 385 -36 205 0 375 21 745 90
146 27 314 57 373 66 94 13 347 34 429 35 l27 0 -14 -41 c-8 -22 -41 -84 -74
-137 -257 -424 -273 -666 -53 -819 78 -55 142 -86 240 -117 145 -45 251 -32
427 54 123 60 194 121 232 198 25 51 28 67 27 152 0 75 -6 112 -28 180 -33 99
-109 255 -174 355 -48 75 -81 141 -82 164 0 12 22 13 130 8 174 -9 314 -28
640 -87 409 -74 511 -89 666 -99 131 -9 322 -2 423 15 129 22 411 113 411 134
0 4 -25 38 -55 75 -30 36 -55 75 -55 84 0 38 91 87 140 76 22 -5 29 -13 34
-39 11 -56 79 -107 145 -108 61 -1 106 20 150 67 67 73 68 157 2 227 -31 34
-48 43 -100 54 -75 15 -123 9 -262 -34 -407 -127 -1017 -218 -1674 -252 -259
-13 -1703 -6 -1890 9 -619 50 -1021 116 -1465 240 -148 42 -217 52 -270 42z
m2851 -601 c47 -13 114 -72 141 -124 31 -57 31 -155 1 -212 -47 -88 -142 -141
-237 -131 -193 20 -281 235 -161 393 52 67 163 100 256 74z m-221 -534 c36
-16 66 -21 145 -21 87 0 107 3 155 26 30 14 76 45 103 68 l47 43 0 -34 c0 -39
-32 -113 -63 -146 -59 -64 -203 -102 -304 -82 -80 17 -122 36 -161 73 -42 40
-67 89 -77 145 l-7 44 58 -48 c32 -26 79 -56 104 -68z"/>
<path d="M2940 914 c-121 -29 -364 -71 -500 -84 -179 -18 -457 -23 -614 -11
-82 6 -151 9 -154 6 -9 -9 32 -61 107 -135 185 -183 416 -223 719 -125 101 32
306 129 399 188 38 24 162 161 163 180 0 10 -12 8 -120 -19z"/>
<path d="M4530 932 c0 -5 25 -41 56 -80 41 -53 73 -82 122 -111 420 -244 735
-291 977 -146 66 40 157 125 205 192 l32 44 -109 -8 c-182 -13 -544 -8 -703
11 -203 24 -461 71 -562 102 -10 3 -18 1 -18 -4z"/>
<path d="M3019 654 c-24 -25 -111 -97 -194 -159 -82 -62 -158 -122 -169 -133
-18 -21 -18 -22 0 -28 11 -4 80 -35 154 -69 206 -96 289 -118 275 -76 -34 108
-46 327 -24 445 6 32 9 60 7 62 -3 2 -24 -17 -49 -42z"/>
<path d="M4513 680 c4 -14 11 -69 18 -123 12 -103 3 -230 -24 -334 -14 -52
-14 -53 8 -53 40 0 129 32 230 83 55 27 120 57 145 66 25 9 46 20 48 24 1 4
-73 67 -165 139 -92 72 -190 151 -217 177 -43 41 -48 43 -43 21z"/>
</g>
</svg>
