<svg width="35" height="52" viewBox="0 0 35 52" fill="none" xmlns="http://www.w3.org/2000/svg">
<path d="M11.9355 1.70898C9.00292 2.6455 6.52831 3.46582 6.43944 3.53418C6.20018 3.71191 6.01561 4.08789 6.01561 4.39551C6.01561 4.64844 6.22069 5.14062 6.35741 5.22949C6.39842 5.25683 6.42577 5.79687 6.42577 6.67187V8.0664H6.26171C6.06346 8.0664 5.70116 8.30566 5.50975 8.56543C5.37987 8.73633 5.35936 8.89355 5.32518 9.86426C5.28417 10.7256 5.20897 11.3682 4.96288 12.7695C4.79198 13.7607 4.64842 14.6699 4.64842 14.7861C4.64842 15.1348 4.91503 15.5312 5.26366 15.709C5.55077 15.8525 5.64647 15.8594 6.93846 15.8594C8.47655 15.8594 8.72264 15.7978 9.02342 15.3809C9.27635 15.0254 9.26268 14.7246 8.91405 12.749C8.66795 11.3135 8.58592 10.6641 8.55174 9.83008C8.51756 8.88672 8.49022 8.73633 8.36717 8.56543C8.17577 8.30566 7.81346 8.0664 7.61522 8.0664H7.45116V6.83594C7.45116 5.74902 7.46483 5.60547 7.56053 5.60547C7.69725 5.60547 9.69335 5.94043 9.86424 5.98828C9.96678 6.02246 9.98045 6.13867 9.98045 7.0957C9.98045 8.28515 10.0351 8.5791 10.2881 8.81836L10.459 8.97558V11.2793V13.5762L10.6572 13.8906C10.8076 14.123 10.9512 14.2461 11.2109 14.3691C11.4297 14.4648 11.5664 14.5742 11.5869 14.6631C11.8945 16.2627 12.4346 17.3018 13.4599 18.2725C13.918 18.7031 13.9453 18.7441 13.9453 19.0312V19.3252L11.7031 20.7949L9.46092 22.2578L8.23045 22.6201C6.89745 23.0166 6.20018 23.3379 5.56444 23.8437C4.7578 24.4932 4.09471 25.5322 3.81444 26.585C3.70506 27.0088 3.67772 27.3369 3.67088 28.3486C3.65721 29.5449 3.66405 29.5996 3.8076 29.7432C3.98534 29.9277 4.3203 29.9414 4.49803 29.7773C4.61424 29.6748 4.63475 29.5244 4.66893 28.417C4.69628 27.3301 4.72362 27.1045 4.88085 26.6191C5.18163 25.6689 5.79003 24.8828 6.64452 24.3359C7.04784 24.0693 7.58104 23.8711 8.95506 23.4814L9.61131 23.2969L13.4736 25.5937C15.6748 26.8994 17.4111 27.8906 17.5068 27.8906C17.5957 27.8906 18.2519 27.542 18.9697 27.1113C19.6806 26.6875 21.1162 25.8398 22.1484 25.2246C23.1806 24.6094 24.3359 23.9258 24.7051 23.7002L25.3818 23.2969L25.9355 23.4473C27.1387 23.7754 27.9521 24.0693 28.3623 24.3359C29.2031 24.8828 29.8047 25.6621 30.126 26.6191L30.3105 27.1729L30.3379 29.9824C30.3652 32.9971 30.3515 33.1885 30.0303 33.5713C29.7226 33.9336 29.5312 33.9746 28.164 33.9746H26.9336V32.8467C26.9336 31.6504 26.8926 31.4385 26.6123 31.3154C26.3799 31.2061 26.291 31.2197 26.0859 31.3838L25.9082 31.5205V32.751V33.9746H17.5H9.09178V32.751V31.5205L8.91405 31.3838C8.70897 31.2197 8.6201 31.2061 8.38768 31.3154C8.10741 31.4385 8.06639 31.6504 8.06639 32.8467V33.9746H6.83592C5.46874 33.9746 5.27733 33.9336 4.96971 33.5713C4.72362 33.2773 4.64842 32.9629 4.64842 32.2109C4.64842 31.6709 4.62792 31.5615 4.51171 31.4453C4.32713 31.2607 3.95799 31.2676 3.7871 31.4521C3.60253 31.6572 3.59569 33.0176 3.78026 33.5508C3.95116 34.0293 4.47069 34.5898 4.93553 34.8018L5.29784 34.9658H17.5H29.7021L30.0644 34.8018C30.5293 34.5898 31.0488 34.0293 31.2197 33.5508C31.3291 33.2227 31.3428 32.9219 31.3428 30.2148C31.3428 26.8242 31.3223 26.6533 30.8027 25.5869C30.29 24.5479 29.5244 23.7617 28.54 23.2559C28.2803 23.126 27.4873 22.8389 26.79 22.627L25.5117 22.2373L23.2832 20.7812L21.0547 19.3252V19.0244C21.0547 18.7441 21.082 18.7031 21.54 18.2725C22.5723 17.2949 23.0986 16.2764 23.4199 14.6494C23.4336 14.5674 23.5156 14.4785 23.6045 14.458C23.9053 14.3623 24.2676 14.0615 24.4043 13.7812C24.5342 13.5078 24.541 13.3643 24.541 11.2383V8.97558L24.7119 8.81836C24.9648 8.5791 25.0195 8.28515 25.0195 7.0957C25.0195 6.13867 25.0332 6.02246 25.1426 5.98828C25.2041 5.96777 25.9219 5.84472 26.7217 5.70801C27.5283 5.57129 28.2939 5.41406 28.417 5.35254C28.7656 5.18847 29.0117 4.73047 28.9707 4.31347C28.9365 3.94433 28.7246 3.60254 28.4512 3.45898C28.0889 3.27441 17.6777 -3.8147e-06 17.4726 0.00683212C17.3564 0.00683212 14.8613 0.779293 11.9355 1.70898ZM22.6816 2.67285C25.5322 3.57519 27.8838 4.34082 27.918 4.375C28 4.45703 27.8906 4.47754 26.0791 4.77832C24.6367 5.01758 24.3838 5.04492 23.9599 4.99023C22.9346 4.85351 22.6269 4.94922 22.6269 5.39355C22.6269 5.72851 22.8115 5.87207 23.3447 5.94726C23.6113 5.98144 23.8642 6.01562 23.9121 6.01562C23.9736 6.01562 23.9941 6.27539 23.9941 7.07519V8.13476H17.5H11.0058V7.07519C11.0058 6.49414 11.0332 6.01562 11.0674 6.01562C11.1015 6.01562 12.373 5.8584 13.8906 5.67383C17.083 5.27051 17.7256 5.25 19.5508 5.47558C20.8906 5.63965 21.0547 5.62597 21.2051 5.30469C21.3076 5.07226 21.1709 4.75097 20.9316 4.65527C20.5967 4.52539 18.3818 4.2998 17.4726 4.2998C16.8096 4.2998 15.791 4.40234 13.5625 4.67578L10.541 5.05176L8.82518 4.76465C7.2871 4.49804 6.95213 4.42285 7.04784 4.35449C7.08202 4.32715 17.3769 1.04589 17.4521 1.03222C17.4863 1.03222 19.8379 1.76367 22.6816 2.67285ZM7.51952 9.57031V10.0488H6.93846H6.35741V9.57031V9.09179H6.93846H7.51952V9.57031ZM12.6465 9.80273C12.6465 10.4385 12.6465 10.4521 12.4346 10.623C12.2637 10.7666 12.1543 10.8008 11.8535 10.8008H11.4844V9.98047V9.16015H12.0654H12.6465V9.80273ZM21.3418 9.93262C21.3623 10.6572 21.376 10.7324 21.5674 11.0469C21.8818 11.5459 22.292 11.7715 22.9687 11.8125L23.5156 11.8467V12.5781C23.5156 13.3848 23.5088 13.3984 23.0644 13.5215C22.6269 13.6514 22.5039 13.8359 22.3877 14.5469C22.1894 15.7705 21.7998 16.543 20.9521 17.4043C20.501 17.8623 20.289 18.0127 19.7558 18.2725C18.8877 18.7031 18.3818 18.8262 17.5 18.8262C16.6181 18.8262 16.1123 18.7031 15.2578 18.2793C14.7383 18.0264 14.5127 17.8623 14.0615 17.4111C13.207 16.5498 12.8105 15.7773 12.6123 14.5469C12.4961 13.8359 12.373 13.6514 11.9355 13.5215C11.4912 13.3984 11.4844 13.3848 11.4844 12.5781V11.8467L12.0312 11.8125C12.708 11.7715 13.1181 11.5459 13.4326 11.0469C13.624 10.7324 13.6377 10.6572 13.6582 9.93262L13.6855 9.16015H17.5H21.3144L21.3418 9.93262ZM23.5156 9.98047V10.8008H23.1465C22.8457 10.8008 22.7363 10.7666 22.5654 10.623C22.3535 10.4521 22.3535 10.4385 22.3535 9.80273V9.16015H22.9346H23.5156V9.98047ZM7.62206 11.2246C7.69042 11.5527 8.20311 14.6016 8.20311 14.7109C8.20311 14.8271 8.10057 14.834 6.97948 14.834C6.28221 14.834 5.73534 14.8066 5.70799 14.7725C5.67381 14.7109 6.03612 12.3936 6.22753 11.4297L6.29588 11.0742H6.9453C7.5537 11.0742 7.58788 11.0811 7.62206 11.2246ZM15.7158 19.5918C17.0215 20.0225 18.457 19.9473 19.9199 19.373C20.043 19.3252 20.0498 19.3594 20.0088 20.207C19.9814 20.6924 19.9131 21.335 19.8447 21.6357L19.7217 22.1826L19.2431 22.2715C18.9629 22.3262 18.2519 22.3604 17.5 22.3604C16.748 22.3604 16.0439 22.3262 15.7637 22.2715C15.3193 22.1895 15.2851 22.1689 15.2305 21.9775C15.1006 21.4922 14.9707 20.501 14.9707 19.9336C14.9707 19.3867 14.9844 19.332 15.0937 19.3799C15.1553 19.4004 15.4355 19.5029 15.7158 19.5918ZM14.0752 21.4102C14.3076 22.7568 14.8818 24.2812 15.5449 25.3203C15.6816 25.5391 15.791 25.7236 15.7773 25.7373C15.7637 25.751 14.8066 25.1904 13.6377 24.4932C12.4756 23.8027 11.3271 23.1191 11.0947 22.9824C10.8213 22.8252 10.6914 22.709 10.7324 22.668C10.8281 22.5723 13.9043 20.583 13.9248 20.6035C13.9385 20.6104 14.0068 20.9727 14.0752 21.4102ZM22.6953 21.6221C23.5019 22.1416 24.206 22.6064 24.2471 22.6543C24.3154 22.7158 23.7617 23.0713 21.7861 24.2471C20.3916 25.0742 19.2363 25.751 19.2226 25.7373C19.209 25.7236 19.332 25.5049 19.4892 25.252C20.1592 24.1582 20.6924 22.75 20.8906 21.5469C21.0547 20.5557 21.0478 20.5625 21.1435 20.6172C21.1914 20.6445 21.8887 21.0957 22.6953 21.6221ZM17.5 23.4131C17.8213 23.4131 18.3681 23.3926 18.7168 23.3652L19.3457 23.3105L19.0312 23.9463C18.7031 24.6025 17.582 26.3867 17.5 26.3867C17.418 26.3867 16.2969 24.6025 15.9687 23.9463L15.6543 23.3105L16.2832 23.3652C16.6318 23.3926 17.1787 23.4131 17.5 23.4131Z" fill="#C8C8C8"/>
<path d="M4.86418 45.67H3.10418V48H2.33418V41.08H4.86418C5.61751 41.08 6.17418 41.2633 6.53418 41.63C6.89418 41.9967 7.07418 42.5567 7.07418 43.31C7.07418 44.8833 6.33751 45.67 4.86418 45.67ZM3.10418 44.99H4.85418C5.80751 44.99 6.28418 44.43 6.28418 43.31C6.28418 42.7767 6.17085 42.3867 5.94418 42.14C5.71751 41.8867 5.35418 41.76 4.85418 41.76H3.10418V44.99ZM8.73191 48V43H9.47191V43.68C10.0519 43.28 10.6619 43.0167 11.3019 42.89V43.65C11.0219 43.7033 10.7286 43.7867 10.4219 43.9C10.1219 44.0133 9.89191 44.1133 9.73191 44.2L9.48191 44.33V48H8.73191ZM12.4713 45.49C12.4713 44.5767 12.6346 43.9167 12.9613 43.51C13.288 43.1033 13.838 42.9 14.6113 42.9C15.3913 42.9 15.9413 43.1033 16.2613 43.51C16.588 43.9167 16.7513 44.5767 16.7513 45.49C16.7513 46.4033 16.598 47.0667 16.2913 47.48C15.9846 47.8933 15.4246 48.1 14.6113 48.1C13.798 48.1 13.238 47.8933 12.9313 47.48C12.6246 47.0667 12.4713 46.4033 12.4713 45.49ZM13.2413 45.48C13.2413 46.2067 13.328 46.7167 13.5013 47.01C13.6813 47.3033 14.0513 47.45 14.6113 47.45C15.178 47.45 15.548 47.3067 15.7213 47.02C15.8946 46.7267 15.9813 46.2133 15.9813 45.48C15.9813 44.7467 15.8846 44.2433 15.6913 43.97C15.498 43.69 15.138 43.55 14.6113 43.55C14.0913 43.55 13.7313 43.69 13.5313 43.97C13.338 44.2433 13.2413 44.7467 13.2413 45.48ZM19.5345 43.65V48H18.7845V43.65H18.1545V43H18.7845V42.55C18.7845 41.8433 18.8845 41.3633 19.0845 41.11C19.2845 40.85 19.6345 40.72 20.1345 40.72L21.1445 40.79L21.1345 41.41C20.7612 41.3967 20.4512 41.39 20.2045 41.39C19.9645 41.39 19.7912 41.47 19.6845 41.63C19.5845 41.79 19.5345 42.1 19.5345 42.56V43H20.9845V43.65H19.5345ZM22.485 48V43H23.235V48H22.485ZM22.485 41.87V41H23.235V41.87H22.485ZM25.3325 48V40.82H26.0825V48H25.3325ZM31.587 47.38L31.877 47.35L31.897 47.94C31.137 48.0467 30.487 48.1 29.947 48.1C29.227 48.1 28.717 47.8933 28.417 47.48C28.117 47.06 27.967 46.41 27.967 45.53C27.967 43.7767 28.6637 42.9 30.057 42.9C30.7303 42.9 31.2337 43.09 31.567 43.47C31.9003 43.8433 32.067 44.4333 32.067 45.24L32.027 45.81H28.727C28.727 46.3633 28.827 46.7733 29.027 47.04C29.227 47.3067 29.5737 47.44 30.067 47.44C30.567 47.44 31.0737 47.42 31.587 47.38ZM31.317 45.21C31.317 44.5967 31.217 44.1633 31.017 43.91C30.8237 43.6567 30.5037 43.53 30.057 43.53C29.617 43.53 29.2837 43.6633 29.057 43.93C28.837 44.1967 28.7237 44.6233 28.717 45.21H31.317Z" fill="#C8C8C8"/>
</svg>
