<svg width="43" height="50" viewBox="0 0 43 50" fill="none" xmlns="http://www.w3.org/2000/svg">
<path d="M15.668 1.53125C15.4902 1.5791 15.292 1.66113 15.2236 1.70898C14.8613 1.98926 14.6221 2.25586 14.4785 2.56348C14.3418 2.85742 14.3145 3.00781 14.3145 3.63672V4.36816L12.4893 4.38867C10.7871 4.40918 10.6299 4.42285 10.2813 4.56641C9.50879 4.87402 8.91407 5.48242 8.62012 6.26855L8.46973 6.66504L8.44922 18.7236C8.44239 26.7217 8.45606 30.9121 8.50391 31.165C8.72266 32.3682 9.67285 33.3047 10.8691 33.4961C11.4502 33.5918 33.1953 33.585 34.0498 33.4893C35.6768 33.3115 37.0439 32.6689 38.2676 31.5068C40.5303 29.3672 41.1729 25.9971 39.8467 23.1943C39.4434 22.3467 39.1289 21.875 38.4932 21.2119C37.625 20.3027 36.3604 19.5371 35.1982 19.2227L34.7197 19.0928L34.6855 12.7764L34.6514 6.45996L34.4326 6.01562C34.1934 5.52344 33.7285 5.00391 33.291 4.75098C32.7441 4.42969 32.334 4.375 30.5361 4.375H28.875V3.73926C28.875 3.37012 28.834 2.95312 28.7725 2.75488C28.6357 2.30371 28.2256 1.83887 27.7676 1.63379L27.4053 1.46973L21.6973 1.45605C17.2471 1.44922 15.9209 1.46289 15.668 1.53125ZM27.3301 3.08984C27.4189 3.21289 27.4395 3.45898 27.4395 4.375C27.4395 5.29102 27.4189 5.53711 27.3301 5.66015L27.2275 5.81054H21.6152C16.4883 5.81054 15.9893 5.80371 15.873 5.69433C15.7637 5.59863 15.75 5.46191 15.75 4.38867C15.75 3.37012 15.7637 3.17188 15.8662 3.0625C15.9688 2.94629 16.2354 2.93945 21.6016 2.93945H27.2275L27.3301 3.08984ZM14.458 6.15234C14.6289 6.55566 15.1484 7.05469 15.5313 7.1914C15.7295 7.25976 16.9668 7.28027 21.5947 7.28027H27.4053L27.7607 7.11621C28.1914 6.9248 28.5264 6.56933 28.7109 6.125L28.8408 5.80371L30.5498 5.82422C32.4092 5.84472 32.4639 5.8584 32.8535 6.26855C33.2705 6.69922 33.25 6.40527 33.25 12.9473V18.9219L32.792 18.9697C30.8096 19.1611 29.251 19.8994 27.9522 21.2666C25.498 23.8574 25.2998 27.8428 27.4736 30.6934C27.6309 30.8984 28 31.2949 28.2871 31.5615L28.8066 32.0605H19.8857C12.4482 32.0605 10.9238 32.0469 10.7393 31.9648C10.4727 31.8486 10.1104 31.4795 10.0147 31.2197C9.95996 31.083 9.93946 27.2959 9.93946 18.9424V6.85644L10.0967 6.5625C10.4453 5.89941 10.7324 5.81738 12.7217 5.81054H14.3076L14.458 6.15234ZM34.4053 20.542C35.5674 20.7881 36.5039 21.2939 37.3584 22.1416C38.5 23.29 39.0605 24.6504 39.0605 26.2705C39.0537 27.8701 38.4932 29.2168 37.3584 30.3584C36.2168 31.4932 34.8701 32.0537 33.2705 32.0605C31.2813 32.0605 29.5107 31.124 28.417 29.4834C27.7539 28.4854 27.4395 27.4463 27.4395 26.25C27.4395 23.502 29.3467 21.1367 32.04 20.5488C32.6211 20.4189 33.8174 20.4189 34.4053 20.542Z" fill="#C8C8C8"/>
<path d="M16.2285 10.2607C16.1328 10.2949 15.4971 10.8896 14.8135 11.5732L13.5693 12.8105L12.9951 12.25C12.4893 11.7578 12.3867 11.6895 12.1748 11.6895C11.833 11.6895 11.6143 11.8057 11.4775 12.0654C11.252 12.4824 11.3477 12.6602 12.3525 13.6582C13.2481 14.54 13.2754 14.5605 13.5693 14.5605H13.8701L15.5244 12.8994C17.1377 11.2861 17.1856 11.2314 17.1856 10.9648C17.1856 10.6367 17.0352 10.4043 16.7344 10.2812C16.4746 10.1719 16.4609 10.1719 16.2285 10.2607Z" fill="#C8C8C8"/>
<path d="M19.127 10.2812C19.0107 10.3359 18.8604 10.4453 18.7988 10.5342C18.6553 10.7392 18.6553 11.1357 18.7988 11.3408C19.0518 11.6963 18.9219 11.6894 25.2588 11.6894C31.7871 11.6894 31.4863 11.7099 31.7051 11.2451C31.7666 11.1221 31.8145 10.9853 31.8145 10.9375C31.8145 10.8896 31.7666 10.7529 31.7051 10.6299C31.4863 10.165 31.7871 10.1855 25.2383 10.1855C20.4258 10.1924 19.2979 10.206 19.127 10.2812Z" fill="#C8C8C8"/>
<path d="M19.0176 13.2412C18.6348 13.4805 18.5664 14.041 18.8877 14.3623L19.0859 14.5605H25.2041C31.2266 14.5605 31.3223 14.5605 31.4932 14.4238C31.7529 14.2188 31.8486 13.877 31.7187 13.583C31.5205 13.0977 31.876 13.125 25.2041 13.125C19.7353 13.1318 19.1885 13.1387 19.0176 13.2412Z" fill="#C8C8C8"/>
<path d="M16.2285 17.5478C16.1738 17.5684 15.5518 18.1562 14.8477 18.8535L13.5625 20.1318L13.0361 19.6055C12.7422 19.3184 12.4141 19.0449 12.3047 19.0039C12.0244 18.9014 11.6689 19.0312 11.5049 19.3047C11.3477 19.5576 11.3408 19.7627 11.4707 20.0156C11.6279 20.3096 13.166 21.793 13.3779 21.8408C13.7607 21.9365 13.9111 21.8271 15.5654 20.1797C17.0967 18.6484 17.1855 18.5391 17.1855 18.3066C17.1855 17.7187 16.7412 17.3633 16.2285 17.5478Z" fill="#C8C8C8"/>
<path d="M19.0176 17.6162C18.6348 17.8555 18.5664 18.416 18.8877 18.7373L19.0859 18.9355H22.3125H25.5391L25.7373 18.7373C26.0654 18.4023 25.9697 17.7666 25.5596 17.582C25.4297 17.5205 24.5478 17.5 22.292 17.5C19.5371 17.5068 19.1816 17.5137 19.0176 17.6162Z" fill="#C8C8C8"/>
<path d="M18.8877 20.6377C18.5664 20.9658 18.6348 21.5264 19.0313 21.7588C19.2022 21.8613 19.5508 21.875 22.3125 21.875C25.0742 21.875 25.4229 21.8613 25.5938 21.7588C25.9902 21.5264 26.0586 20.9658 25.7373 20.6377L25.5391 20.4395H22.3125H19.0859L18.8877 20.6377Z" fill="#C8C8C8"/>
<path d="M16.126 24.8896C16.0508 24.9307 15.4424 25.5117 14.7793 26.168L13.5693 27.3711L13.0361 26.8515C12.4619 26.2978 12.3047 26.2158 11.9629 26.2773C11.4775 26.3662 11.2383 26.9336 11.498 27.3574C11.7031 27.6924 13.0908 29.0322 13.3232 29.1211C13.7266 29.2783 13.8633 29.1826 15.4629 27.5898C16.3037 26.7627 17.0352 25.9971 17.0898 25.8945C17.3564 25.3887 17.0488 24.8144 16.5225 24.8144C16.3789 24.8144 16.2012 24.8555 16.126 24.8896Z" fill="#C8C8C8"/>
<path d="M18.8877 25.0127C18.5527 25.3477 18.6416 25.9219 19.0586 26.1475C19.2432 26.2432 19.5439 26.2568 21.6767 26.2363L24.0762 26.2158L24.2539 26.0518C24.6025 25.7236 24.5273 25.0811 24.1172 24.8897C24.001 24.8418 23.1601 24.8145 21.5195 24.8145H19.0859L18.8877 25.0127Z" fill="#C8C8C8"/>
<path d="M19.127 27.7812C18.8467 27.9043 18.6895 28.1367 18.6895 28.4375C18.6895 28.7451 18.8467 28.9707 19.1406 29.0937C19.4756 29.2373 23.7139 29.2305 24.0557 29.0937C24.2949 28.9912 24.5 28.6904 24.5 28.4375C24.5 28.1846 24.2949 27.8838 24.0557 27.7812C23.7207 27.6445 19.4414 27.6445 19.127 27.7812Z" fill="#C8C8C8"/>
<path d="M32.8467 22.7363C32.5391 22.9551 32.498 23.1943 32.498 24.8076C32.498 25.6963 32.5254 26.3867 32.5732 26.4961C32.6553 26.7217 34.002 28.1094 34.3301 28.3144C34.8906 28.6631 35.6016 28.1025 35.4033 27.4736C35.376 27.3848 35.0479 27.0019 34.6787 26.626L34.002 25.9287V24.6162C34.002 23.208 33.9541 22.9482 33.6533 22.7363C33.5645 22.6748 33.3867 22.6269 33.25 22.6269C33.1133 22.6269 32.9355 22.6748 32.8467 22.7363Z" fill="#C8C8C8"/>
<path d="M3.07797 39.65C2.07797 39.65 1.57797 40.0267 1.57797 40.78C1.57797 41.2 1.6913 41.49 1.91797 41.65C2.1513 41.8033 2.61797 41.96 3.31797 42.12C4.02464 42.2733 4.52464 42.4767 4.81797 42.73C5.1113 42.9767 5.25797 43.3867 5.25797 43.96C5.25797 45.38 4.5213 46.09 3.04797 46.09C2.5613 46.09 1.9513 46.0333 1.21797 45.92L0.857968 45.87L0.937968 45.23C1.84464 45.35 2.53464 45.41 3.00797 45.41C3.99464 45.41 4.48797 44.9467 4.48797 44.02C4.48797 43.6467 4.37797 43.38 4.15797 43.22C3.94464 43.0533 3.5413 42.9133 2.94797 42.8C2.16797 42.6333 1.61464 42.42 1.28797 42.16C0.961302 41.8933 0.797968 41.45 0.797968 40.83C0.797968 39.59 1.5413 38.97 3.02797 38.97C3.51464 38.97 4.09797 39.02 4.77797 39.12L5.11797 39.17L5.04797 39.82C4.1213 39.7067 3.46464 39.65 3.07797 39.65ZM8.92789 40.9C9.14789 40.9 9.52122 40.94 10.0479 41.02L10.2879 41.05L10.2579 41.66C9.72456 41.6 9.33122 41.57 9.07789 41.57C8.51122 41.57 8.12456 41.7067 7.91789 41.98C7.71789 42.2467 7.61789 42.7467 7.61789 43.48C7.61789 44.2067 7.71122 44.7133 7.89789 45C8.09122 45.2867 8.48789 45.43 9.08789 45.43L10.2679 45.34L10.2979 45.96C9.67789 46.0533 9.21456 46.1 8.90789 46.1C8.12789 46.1 7.58789 45.9 7.28789 45.5C6.99456 45.1 6.84789 44.4267 6.84789 43.48C6.84789 42.5267 7.00789 41.86 7.32789 41.48C7.64789 41.0933 8.18122 40.9 8.92789 40.9ZM12.7634 46H12.0134V38.82H12.7634V41.28C13.2967 41.0267 13.81 40.9 14.3034 40.9C14.97 40.9 15.4167 41.08 15.6434 41.44C15.8767 41.8 15.9934 42.44 15.9934 43.36V46H15.2434V43.38C15.2434 42.6867 15.1734 42.2133 15.0334 41.96C14.9 41.7 14.6134 41.57 14.1734 41.57C13.7534 41.57 13.3467 41.6467 12.9534 41.8L12.7634 41.87V46ZM21.3845 45.38L21.6745 45.35L21.6945 45.94C20.9345 46.0467 20.2845 46.1 19.7445 46.1C19.0245 46.1 18.5145 45.8933 18.2145 45.48C17.9145 45.06 17.7645 44.41 17.7645 43.53C17.7645 41.7767 18.4611 40.9 19.8545 40.9C20.5278 40.9 21.0311 41.09 21.3645 41.47C21.6978 41.8433 21.8645 42.4333 21.8645 43.24L21.8245 43.81H18.5245C18.5245 44.3633 18.6245 44.7733 18.8245 45.04C19.0245 45.3067 19.3711 45.44 19.8645 45.44C20.3645 45.44 20.8711 45.42 21.3845 45.38ZM21.1145 43.21C21.1145 42.5967 21.0145 42.1633 20.8145 41.91C20.6211 41.6567 20.3011 41.53 19.8545 41.53C19.4145 41.53 19.0811 41.6633 18.8545 41.93C18.6345 42.1967 18.5211 42.6233 18.5145 43.21H21.1145ZM27.4733 38.82V46H26.7333V45.66C26.2199 45.9533 25.7133 46.1 25.2133 46.1C24.9466 46.1 24.7133 46.0667 24.5133 46C24.3133 45.9333 24.1266 45.8133 23.9533 45.64C23.5933 45.28 23.4133 44.6167 23.4133 43.65C23.4133 42.6767 23.5733 41.9767 23.8933 41.55C24.2199 41.1167 24.7566 40.9 25.5033 40.9C25.8899 40.9 26.2999 40.9433 26.7333 41.03V38.82H27.4733ZM24.5333 45.1C24.6399 45.2267 24.7533 45.3133 24.8733 45.36C24.9933 45.4067 25.1466 45.43 25.3333 45.43C25.5266 45.43 25.7399 45.4 25.9733 45.34C26.2133 45.2733 26.3999 45.21 26.5333 45.15L26.7333 45.06V41.67C26.3066 41.59 25.9099 41.55 25.5433 41.55C25.0366 41.55 24.6833 41.7133 24.4833 42.04C24.2833 42.36 24.1833 42.86 24.1833 43.54C24.1833 44.3133 24.2999 44.8333 24.5333 45.1ZM32.6462 41H33.3962V46H32.6462V45.65C32.1462 45.95 31.6529 46.1 31.1662 46.1C30.4862 46.1 30.0329 45.9233 29.8062 45.57C29.5862 45.2167 29.4762 44.5633 29.4762 43.61V41H30.2262V43.6C30.2262 44.3267 30.2896 44.8133 30.4162 45.06C30.5429 45.3067 30.8296 45.43 31.2762 45.43C31.4962 45.43 31.7196 45.4 31.9462 45.34C32.1729 45.2733 32.3462 45.21 32.4662 45.15L32.6462 45.06V41ZM35.4988 46V38.82H36.2488V46H35.4988ZM41.7532 45.38L42.0432 45.35L42.0632 45.94C41.3032 46.0467 40.6532 46.1 40.1132 46.1C39.3932 46.1 38.8832 45.8933 38.5832 45.48C38.2832 45.06 38.1332 44.41 38.1332 43.53C38.1332 41.7767 38.8299 40.9 40.2232 40.9C40.8965 40.9 41.3999 41.09 41.7332 41.47C42.0665 41.8433 42.2332 42.4333 42.2332 43.24L42.1932 43.81H38.8932C38.8932 44.3633 38.9932 44.7733 39.1932 45.04C39.3932 45.3067 39.7399 45.44 40.2332 45.44C40.7332 45.44 41.2399 45.42 41.7532 45.38ZM41.4832 43.21C41.4832 42.5967 41.3832 42.1633 41.1832 41.91C40.9899 41.6567 40.6699 41.53 40.2232 41.53C39.7832 41.53 39.4499 41.6633 39.2232 41.93C39.0032 42.1967 38.8899 42.6233 38.8832 43.21H41.4832Z" fill="#C8C8C8"/>
</svg>
